<svg width="500" height="500" viewBox="0 0 500 500" fill="none" xmlns="http://www.w3.org/2000/svg">
<rect width="500" height="500" fill="#F4F2EF"/>
<path d="M136 208C136 183.147 156.147 163 181 163H196V290C196 314.853 175.853 335 151 335H136V208Z" fill="#336021"/>
<path d="M208 233H223C247.853 233 268 253.147 268 278V290C268 314.853 247.853 335 223 335H208V233Z" fill="#336021"/>
<circle cx="238" cy="193" r="30" fill="#336021"/>
<path d="M365 291.5C365 285.919 363.901 280.392 361.765 275.236C359.629 270.08 356.499 265.394 352.552 261.448C348.606 257.501 343.92 254.371 338.764 252.235C333.608 250.099 328.081 249 322.5 249L322.5 291.5H365Z" fill="#336021"/>
<path d="M350.575 326.406C343.044 333.033 333.412 336.783 323.382 336.991C313.353 337.199 303.573 333.853 295.773 327.544C287.973 321.236 282.657 312.372 280.764 302.52C278.871 292.669 280.523 282.465 285.429 273.715L305.627 285.039C303.394 289.022 302.641 293.666 303.503 298.151C304.365 302.635 306.785 306.669 310.335 309.541C313.885 312.412 318.336 313.935 322.902 313.84C327.467 313.746 331.851 312.039 335.279 309.023L350.575 326.406Z" fill="#336021"/>
</svg>
